<svg width="24" height="25" viewBox="0 0 24 25" fill="none" xmlns="http://www.w3.org/2000/svg">
<path d="M23.643 5.43695C22.808 5.80695 21.911 6.05696 20.968 6.16996C21.941 5.58775 22.669 4.67142 23.016 3.59195C22.1019 4.13494 21.1014 4.51715 20.058 4.72196C19.3564 3.97282 18.4271 3.47628 17.4143 3.30943C16.4016 3.14258 15.3621 3.31475 14.4572 3.79921C13.5524 4.28367 12.8328 5.05332 12.4102 5.98866C11.9875 6.924 11.8855 7.9727 12.12 8.97195C10.2677 8.87895 8.45564 8.3975 6.80144 7.55886C5.14723 6.72022 3.68785 5.54312 2.51801 4.10396C2.11801 4.79396 1.88801 5.59396 1.88801 6.44596C1.88757 7.21295 2.07644 7.9682 2.43789 8.64469C2.79934 9.32118 3.32217 9.89799 3.96001 10.324C3.22029 10.3004 2.49688 10.1005 1.85001 9.74095V9.80095C1.84994 10.8767 2.22204 11.9193 2.90319 12.752C3.58434 13.5846 4.53258 14.1559 5.58701 14.369C4.9008 14.5547 4.18135 14.582 3.48301 14.449C3.78051 15.3746 4.36001 16.184 5.14038 16.7639C5.92075 17.3438 6.86293 17.6651 7.83501 17.683C6.18484 18.9784 4.1469 19.681 2.04901 19.678C1.67739 19.6781 1.30609 19.6564 0.937012 19.613C3.06649 20.9821 5.54535 21.7088 8.07701 21.706C16.647 21.706 21.332 14.608 21.332 8.45195C21.332 8.25196 21.327 8.04995 21.318 7.84995C22.2293 7.19093 23.0159 6.37485 23.641 5.43995L23.643 5.43695Z" fill="white" fill-opacity="0.8"/>
</svg>
