<svg width="24" height="25" viewBox="0 0 24 25" fill="none" xmlns="http://www.w3.org/2000/svg">
<g clip-path="url(#clip0_0_153)">
<path d="M12.0765 3.49854H12.21C13.443 3.50304 19.6905 3.54804 21.375 4.00104C21.8842 4.13929 22.3483 4.40877 22.7207 4.78255C23.0932 5.15633 23.361 5.62131 23.4975 6.13104C23.649 6.70104 23.7555 7.45554 23.8275 8.23404L23.8425 8.39004L23.8755 8.78004L23.8875 8.93604C23.985 10.307 23.997 11.591 23.9985 11.8715V11.984C23.997 12.275 23.9835 13.646 23.8755 15.074L23.8635 15.2315L23.85 15.3875C23.775 16.2455 23.664 17.0975 23.4975 17.7245C23.3615 18.2345 23.0938 18.6997 22.7212 19.0735C22.3487 19.4474 21.8844 19.7167 21.375 19.8545C19.635 20.3225 13.0215 20.3555 12.105 20.357H11.892C11.4285 20.357 9.5115 20.348 7.5015 20.279L7.2465 20.27L7.116 20.264L6.8595 20.2535L6.603 20.243C4.938 20.1695 3.3525 20.051 2.622 19.853C2.11273 19.7153 1.6486 19.4462 1.27609 19.0726C0.903575 18.6991 0.63577 18.2342 0.4995 17.7245C0.333 17.099 0.222 16.2455 0.147 15.3875L0.135 15.23L0.123 15.074C0.0489714 14.0576 0.0079498 13.0391 0 12.02L0 11.8355C0.003 11.513 0.015 10.3985 0.096 9.16854L0.1065 9.01404L0.111 8.93604L0.123 8.78004L0.156 8.39004L0.171 8.23404C0.243 7.45554 0.3495 6.69954 0.501 6.13104C0.63704 5.62111 0.904743 5.1559 1.27727 4.78206C1.6498 4.40822 2.11405 4.13887 2.6235 4.00104C3.354 3.80604 4.9395 3.68604 6.6045 3.61104L6.8595 3.60054L7.1175 3.59154L7.2465 3.58704L7.503 3.57654C8.93056 3.5306 10.3587 3.50509 11.787 3.50004H12.0765V3.49854ZM9.6 8.31354V15.5405L15.8355 11.9285L9.6 8.31354Z" fill="white" fill-opacity="0.8"/>
</g>
<defs>
<clipPath id="clip0_0_153">
<rect width="24" height="24" fill="white" transform="translate(0 0.5)"/>
</clipPath>
</defs>
</svg>
