<svg width="29" height="20" viewBox="0 0 29 20" fill="none" xmlns="http://www.w3.org/2000/svg">
<path d="M2 8.75C1.30964 8.75 0.75 9.30964 0.75 10C0.75 10.6904 1.30964 11.25 2 11.25V8.75ZM27.8839 10.8839C28.372 10.3957 28.372 9.60427 27.8839 9.11612L19.9289 1.16117C19.4408 0.67301 18.6493 0.67301 18.1612 1.16117C17.673 1.64932 17.673 2.44078 18.1612 2.92893L25.2322 10L18.1612 17.0711C17.673 17.5592 17.673 18.3507 18.1612 18.8388C18.6493 19.327 19.4408 19.327 19.9289 18.8388L27.8839 10.8839ZM2 11.25H27V8.75H2V11.25Z" fill="white"/>
</svg>
