<svg width="213" height="37" viewBox="0 0 213 37" fill="none" xmlns="http://www.w3.org/2000/svg">
<path fill-rule="evenodd" clip-rule="evenodd" d="M18.4943 18.5013L22.5464 14.4507L30.2267 22.128L36.8779 15.4793L43.7807 22.2146L51.5259 14.5228L55.5058 18.5013L43.4152 30.5873L36.8483 24.1797L30.5116 30.514L18.4943 18.5013ZM32.979 32.9805L37 37L40.9476 33.054L36.878 29.0831L32.979 32.9805ZM30.2267 17.195L25.0138 11.9842L37 0.00250652L49.0584 12.0563L43.7591 17.3191L36.8483 10.5759L30.2267 17.195Z" fill="#3868C6"/>
<path d="M0 18.4987C0 18.2802 18.5019 6.07521 27.7529 0L9.24713 18.4987L27.7529 36.9975L0 18.4987Z" fill="#3868C6"/>
<path d="M46.2471 1.23283e-05L74 18.4988L46.2471 36.9975L64.7529 18.4988L46.2471 1.23283e-05Z" fill="#3868C6"/>
<path d="M104.979 18.2278C106.571 19.1437 107.367 20.5261 107.367 22.3752C107.367 23.9131 106.822 25.1746 105.732 26.1596C104.641 27.1446 103.3 27.6371 101.709 27.6371H94V9.4925H101.164C102.721 9.4925 104.027 9.97635 105.083 10.9441C106.156 11.8945 106.692 13.1128 106.692 14.5989C106.692 16.1023 106.121 17.312 104.979 18.2278ZM101.164 12.8363H97.5818V16.8281H101.164C101.717 16.8281 102.176 16.638 102.539 16.2578C102.92 15.8777 103.11 15.4025 103.11 14.8322C103.11 14.2619 102.928 13.7867 102.565 13.4065C102.202 13.0264 101.735 12.8363 101.164 12.8363ZM101.709 24.2933C102.314 24.2933 102.816 24.0946 103.214 23.6971C103.612 23.2824 103.811 22.764 103.811 22.1419C103.811 21.5371 103.612 21.0359 103.214 20.6385C102.816 20.2237 102.314 20.0164 101.709 20.0164H97.5818V24.2933H101.709Z" fill="#3868C6"/>
<path d="M123.395 17.8909H120.462V23.2824C120.462 23.7317 120.574 24.06 120.799 24.2674C121.024 24.4748 121.353 24.5957 121.786 24.6303C122.218 24.6476 122.755 24.6389 123.395 24.6044V27.6371C121.094 27.8963 119.467 27.6803 118.515 26.9891C117.581 26.2979 117.114 25.0623 117.114 23.2824V17.8909H114.856V14.6767H117.114V12.0587L120.462 11.0477V14.6767H123.395V17.8909Z" fill="#3868C6"/>
<path d="M140.571 14.6767H144.127L140 27.6371H136.807L134.42 19.7831L132.032 27.6371H128.839L124.713 14.6767H128.268L130.474 22.6344L132.836 14.6767H136.003L138.365 22.6603L140.571 14.6767Z" fill="#3868C6"/>
<path d="M155.287 14.6767H158.636V27.6371H155.287V26.1078C154.284 27.3693 152.874 28 151.057 28C149.326 28 147.838 27.3433 146.592 26.03C145.364 24.6994 144.75 23.075 144.75 21.1569C144.75 19.2387 145.364 17.623 146.592 16.3097C147.838 14.9791 149.326 14.3138 151.057 14.3138C152.874 14.3138 154.284 14.9445 155.287 16.206V14.6767ZM149.11 23.8008C149.785 24.4748 150.641 24.8117 151.68 24.8117C152.718 24.8117 153.574 24.4748 154.249 23.8008C154.941 23.1096 155.287 22.2283 155.287 21.1569C155.287 20.0855 154.941 19.2128 154.249 18.5389C153.574 17.8477 152.718 17.502 151.68 17.502C150.641 17.502 149.785 17.8477 149.11 18.5389C148.435 19.2128 148.098 20.0855 148.098 21.1569C148.098 22.2283 148.435 23.1096 149.11 23.8008Z" fill="#3868C6"/>
<path d="M165.02 16.9059C165.331 16.0764 165.842 15.4543 166.551 15.0396C167.278 14.6248 168.082 14.4175 168.965 14.4175V18.1501C167.944 18.0291 167.027 18.2365 166.214 18.7722C165.418 19.3079 165.02 20.1978 165.02 21.442V27.6371H161.672V14.6767H165.02V16.9059Z" fill="#3868C6"/>
<path d="M180.278 9.4925H183.627V27.6371H180.278V26.1078C179.292 27.3693 177.891 28 176.074 28C174.326 28 172.829 27.3433 171.584 26.03C170.355 24.6994 169.741 23.075 169.741 21.1569C169.741 19.2387 170.355 17.623 171.584 16.3097C172.829 14.9791 174.326 14.3138 176.074 14.3138C177.891 14.3138 179.292 14.9445 180.278 16.206V9.4925ZM174.101 23.8008C174.793 24.4748 175.658 24.8117 176.697 24.8117C177.735 24.8117 178.591 24.4748 179.266 23.8008C179.941 23.1096 180.278 22.2283 180.278 21.1569C180.278 20.0855 179.941 19.2128 179.266 18.5389C178.591 17.8477 177.735 17.502 176.697 17.502C175.658 17.502 174.793 17.8477 174.101 18.5389C173.426 19.2128 173.089 20.0855 173.089 21.1569C173.089 22.2283 173.426 23.1096 174.101 23.8008Z" fill="#3868C6"/>
<path d="M189.518 22.5307C189.968 24.1551 191.188 24.9673 193.177 24.9673C194.458 24.9673 195.427 24.5352 196.084 23.6712L198.784 25.2265C197.503 27.0755 195.617 28 193.125 28C190.98 28 189.258 27.352 187.96 26.0559C186.663 24.7599 186.014 23.1269 186.014 21.1569C186.014 19.2042 186.654 17.5798 187.935 16.2838C189.215 14.9704 190.859 14.3138 192.866 14.3138C194.769 14.3138 196.335 14.9704 197.564 16.2838C198.81 17.5971 199.433 19.2215 199.433 21.1569C199.433 21.5889 199.389 22.0468 199.303 22.5307H189.518ZM189.466 19.9386H196.084C195.894 19.0573 195.496 18.4006 194.89 17.9686C194.302 17.5366 193.627 17.3206 192.866 17.3206C191.966 17.3206 191.222 17.5539 190.634 18.0205C190.045 18.4698 189.656 19.1091 189.466 19.9386Z" fill="#3868C6"/>
<path d="M213 27.6371H209.133L206.33 23.6971L203.501 27.6371H199.633L204.383 21.0273L199.841 14.6767H203.708L206.33 18.3315L208.951 14.6767H212.792L208.25 21.0014L213 27.6371Z" fill="#3868C6"/>
<path fill-rule="evenodd" clip-rule="evenodd" d="M109.17 11.0737L111.22 13.1214L113.297 11.0737L111.22 9L109.17 11.0737ZM109.559 27.6371V14.6767H112.907V27.6371H109.559Z" fill="#3868C6"/>
</svg>
